<svg xmlns="http://www.w3.org/2000/svg" width="200" height="600"><rect width="200" height="600" x="0" y="0" fill="#FFFFFF" id="background"/><g transform="translate(50,50)" id="viz"><g fill="none" font-size="10" font-family="sans-serif" text-anchor="middle"><path class="domain" stroke="currentColor" d="M0,0H103.84615384615385"/><g class="tick" opacity="1" transform="translate(11.25138906037783,0)"><line stroke="currentColor" y2="-6"/><text fill="currentColor" y="-9" dy="3.4641016151377544" dx="3.4641016151377544" text-anchor="start" transform="rotate(-45)">A</text></g><g class="tick" opacity="1" transform="translate(31.587232991727376,0)"><line stroke="currentColor" y2="-6"/><text fill="currentColor" y="-9" dy="3.4641016151377544" dx="3.4641016151377544" text-anchor="start" transform="rotate(-45)">B</text></g><g class="tick" opacity="1" transform="translate(51.92307692307693,0)"><line stroke="currentColor" y2="-6"/><text fill="currentColor" y="-9" dy="3.4641016151377544" dx="3.4641016151377544" text-anchor="start" transform="rotate(-45)">C</text></g><g class="tick" opacity="1" transform="translate(72.25892085442648,0)"><line stroke="currentColor" y2="-6"/><text fill="currentColor" y="-9" dy="3.4641016151377544" dx="3.4641016151377544" text-anchor="start" transform="rotate(-45)">D</text></g><g class="tick" opacity="1" transform="translate(92.59476478577602,0)"><line stroke="currentColor" y2="-6"/><text fill="currentColor" y="-9" dy="3.4641016151377544" dx="3.4641016151377544" text-anchor="start" transform="rotate(-45)">N</text></g></g><g fill="none" font-size="10" font-family="sans-serif" text-anchor="end"><path class="domain" stroke="currentColor" d="M0,0V540"/><g class="tick" opacity="1" transform="translate(0,11.444270015698542)"><line stroke="currentColor" x2="-6"/><text fill="currentColor" x="-9" dy="0.32em">犯罪</text></g><g class="tick" opacity="1" transform="translate(0,32.12872841444266)"><line stroke="currentColor" x2="-6"/><text fill="currentColor" x="-9" dy="0.32em">偷拍</text></g><g class="tick" opacity="1" transform="translate(0,52.813186813186775)"><line stroke="currentColor" x2="-6"/><text fill="currentColor" x="-9" dy="0.32em">教育</text></g><g class="tick" opacity="1" transform="translate(0,73.49764521193089)"><line stroke="currentColor" x2="-6"/><text fill="currentColor" x="-9" dy="0.32em">暴力</text></g><g class="tick" opacity="1" transform="translate(0,94.182103610675)"><line stroke="currentColor" x2="-6"/><text fill="currentColor" x="-9" dy="0.32em">未成年</text></g><g class="tick" opacity="1" transform="translate(0,114.86656200941911)"><line stroke="currentColor" x2="-6"/><text fill="currentColor" x="-9" dy="0.32em">性骚扰</text></g><g class="tick" opacity="1" transform="translate(0,135.55102040816325)"><line stroke="currentColor" x2="-6"/><text fill="currentColor" x="-9" dy="0.32em">公职人员</text></g><g class="tick" opacity="1" transform="translate(0,156.23547880690737)"><line stroke="currentColor" x2="-6"/><text fill="currentColor" x="-9" dy="0.32em">法律</text></g><g class="tick" opacity="1" transform="translate(0,176.91993720565148)"><line stroke="currentColor" x2="-6"/><text fill="currentColor" x="-9" dy="0.32em">AI</text></g><g class="tick" opacity="1" transform="translate(0,197.6043956043956)"><line stroke="currentColor" x2="-6"/><text fill="currentColor" x="-9" dy="0.32em">名誉权</text></g><g class="tick" opacity="1" transform="translate(0,218.2888540031397)"><line stroke="currentColor" x2="-6"/><text fill="currentColor" x="-9" dy="0.32em">婚姻</text></g><g class="tick" opacity="1" transform="translate(0,238.97331240188382)"><line stroke="currentColor" x2="-6"/><text fill="currentColor" x="-9" dy="0.32em">性侵</text></g><g class="tick" opacity="1" transform="translate(0,259.65777080062793)"><line stroke="currentColor" x2="-6"/><text fill="currentColor" x="-9" dy="0.32em">故意杀人</text></g><g class="tick" opacity="1" transform="translate(0,280.342229199372)"><line stroke="currentColor" x2="-6"/><text fill="currentColor" x="-9" dy="0.32em">强奸</text></g><g class="tick" opacity="1" transform="translate(0,301.02668759811615)"><line stroke="currentColor" x2="-6"/><text fill="currentColor" x="-9" dy="0.32em">投毒</text></g><g class="tick" opacity="1" transform="translate(0,321.71114599686024)"><line stroke="currentColor" x2="-6"/><text fill="currentColor" x="-9" dy="0.32em">留学生</text></g><g class="tick" opacity="1" transform="translate(0,342.3956043956044)"><line stroke="currentColor" x2="-6"/><text fill="currentColor" x="-9" dy="0.32em">职场</text></g><g class="tick" opacity="1" transform="translate(0,363.0800627943485)"><line stroke="currentColor" x2="-6"/><text fill="currentColor" x="-9" dy="0.32em">舆论</text></g><g class="tick" opacity="1" transform="translate(0,383.7645211930926)"><line stroke="currentColor" x2="-6"/><text fill="currentColor" x="-9" dy="0.32em">代孕</text></g><g class="tick" opacity="1" transform="translate(0,404.44897959183675)"><line stroke="currentColor" x2="-6"/><text fill="currentColor" x="-9" dy="0.32em">媒体</text></g><g class="tick" opacity="1" transform="translate(0,425.13343799058083)"><line stroke="currentColor" x2="-6"/><text fill="currentColor" x="-9" dy="0.32em">德国</text></g><g class="tick" opacity="1" transform="translate(0,445.81789638932497)"><line stroke="currentColor" x2="-6"/><text fill="currentColor" x="-9" dy="0.32em">性别歧视</text></g><g class="tick" opacity="1" transform="translate(0,466.50235478806906)"><line stroke="currentColor" x2="-6"/><text fill="currentColor" x="-9" dy="0.32em">文化</text></g><g class="tick" opacity="1" transform="translate(0,487.1868131868132)"><line stroke="currentColor" x2="-6"/><text fill="currentColor" x="-9" dy="0.32em">跨国</text></g><g class="tick" opacity="1" transform="translate(0,507.87127158555734)"><line stroke="currentColor" x2="-6"/><text fill="currentColor" x="-9" dy="0.32em">迷药</text></g><g class="tick" opacity="1" transform="translate(0,528.5557299843015)"><line stroke="currentColor" x2="-6"/><text fill="currentColor" x="-9" dy="0.32em">金融</text></g></g><text dx="-9" dy="-9" style="text-anchor: end; font-family: Arial, sans-serif; font-size: 12px; fill: rgb(123, 123, 123); font-weight: bold;">tag</text><text x="79.79428061543578" y="79.79428061543578" dx="3.4641016151377544" dy="-3.4641016151377544" transform="rotate(-45)" style="text-anchor: start; font-family: Arial, sans-serif; font-size: 12px; fill: rgb(123, 123, 123); font-weight: bold;">category</text><rect x="2.1669341894061063" y="2.204081632653015" rx="0" ry="0" width="18.76923076923077" height="18.76923076923077" style="fill: rgb(103, 0, 13);"/><rect x="2.1669341894061063" y="22.88854003139713" rx="0" ry="0" width="18.76923076923077" height="18.76923076923077" style="fill: rgb(217, 191, 195);"/><rect x="2.1669341894061063" y="43.57299843014125" rx="0" ry="0" width="18.76923076923077" height="18.76923076923077" style="fill: rgb(242, 234, 235);"/><rect x="2.1669341894061063" y="64.25745682888537" rx="0" ry="0" width="18.76923076923077" height="18.76923076923077" style="fill: rgb(192, 149, 154);"/><rect x="2.1669341894061063" y="84.94191522762948" rx="0" ry="0" width="18.76923076923077" height="18.76923076923077" style="fill: rgb(217, 191, 195);"/><rect x="2.1669341894061063" y="105.62637362637359" rx="0" ry="0" width="18.76923076923077" height="18.76923076923077" style="fill: rgb(242, 234, 235);"/><rect x="2.1669341894061063" y="126.31083202511772" rx="0" ry="0" width="18.76923076923077" height="18.76923076923077" style="fill: rgb(242, 234, 235);"/><rect x="2.1669341894061063" y="146.99529042386183" rx="0" ry="0" width="18.76923076923077" height="18.76923076923077" style="fill: rgb(242, 234, 235);"/><rect x="2.1669341894061063" y="167.67974882260594" rx="0" ry="0" width="18.76923076923077" height="18.76923076923077" style="fill: rgb(242, 234, 235);"/><rect x="2.1669341894061063" y="188.36420722135006" rx="0" ry="0" width="18.76923076923077" height="18.76923076923077" style="fill: rgb(255, 255, 255);"/><rect x="2.1669341894061063" y="209.04866562009417" rx="0" ry="0" width="18.76923076923077" height="18.76923076923077" style="fill: rgb(230, 213, 215);"/><rect x="2.1669341894061063" y="229.73312401883828" rx="0" ry="0" width="18.76923076923077" height="18.76923076923077" style="fill: rgb(217, 191, 195);"/><rect x="2.1669341894061063" y="250.41758241758242" rx="0" ry="0" width="18.76923076923077" height="18.76923076923077" style="fill: rgb(217, 191, 195);"/><rect x="2.1669341894061063" y="271.1020408163265" rx="0" ry="0" width="18.76923076923077" height="18.76923076923077" style="fill: rgb(230, 213, 215);"/><rect x="2.1669341894061063" y="291.78649921507065" rx="0" ry="0" width="18.76923076923077" height="18.76923076923077" style="fill: rgb(242, 234, 235);"/><rect x="2.1669341894061063" y="312.47095761381473" rx="0" ry="0" width="18.76923076923077" height="18.76923076923077" style="fill: rgb(230, 213, 215);"/><rect x="2.1669341894061063" y="333.1554160125589" rx="0" ry="0" width="18.76923076923077" height="18.76923076923077" style="fill: rgb(255, 255, 255);"/><rect x="2.1669341894061063" y="353.839874411303" rx="0" ry="0" width="18.76923076923077" height="18.76923076923077" style="fill: rgb(242, 234, 235);"/><rect x="2.1669341894061063" y="374.5243328100471" rx="0" ry="0" width="18.76923076923077" height="18.76923076923077" style="fill: rgb(242, 234, 235);"/><rect x="2.1669341894061063" y="395.20879120879124" rx="0" ry="0" width="18.76923076923077" height="18.76923076923077" style="fill: rgb(242, 234, 235);"/><rect x="2.1669341894061063" y="415.8932496075353" rx="0" ry="0" width="18.76923076923077" height="18.76923076923077" style="fill: rgb(242, 234, 235);"/><rect x="2.1669341894061063" y="436.57770800627947" rx="0" ry="0" width="18.76923076923077" height="18.76923076923077" style="fill: rgb(255, 255, 255);"/><rect x="2.1669341894061063" y="457.26216640502355" rx="0" ry="0" width="18.76923076923077" height="18.76923076923077" style="fill: rgb(255, 255, 255);"/><rect x="2.1669341894061063" y="477.9466248037677" rx="0" ry="0" width="18.76923076923077" height="18.76923076923077" style="fill: rgb(242, 234, 235);"/><rect x="2.1669341894061063" y="498.63108320251183" rx="0" ry="0" width="18.76923076923077" height="18.76923076923077" style="fill: rgb(242, 234, 235);"/><rect x="2.1669341894061063" y="519.315541601256" rx="0" ry="0" width="18.76923076923077" height="18.76923076923077" style="fill: rgb(242, 234, 235);"/><rect x="22.502778120755654" y="2.204081632653015" rx="0" ry="0" width="18.76923076923077" height="18.76923076923077" style="fill: rgb(230, 213, 215);"/><rect x="22.502778120755654" y="22.88854003139713" rx="0" ry="0" width="18.76923076923077" height="18.76923076923077" style="fill: rgb(166, 106, 114);"/><rect x="22.502778120755654" y="43.57299843014125" rx="0" ry="0" width="18.76923076923077" height="18.76923076923077" style="fill: rgb(192, 149, 154);"/><rect x="22.502778120755654" y="64.25745682888537" rx="0" ry="0" width="18.76923076923077" height="18.76923076923077" style="fill: rgb(255, 255, 255);"/><rect x="22.502778120755654" y="84.94191522762948" rx="0" ry="0" width="18.76923076923077" height="18.76923076923077" style="fill: rgb(242, 234, 235);"/><rect x="22.502778120755654" y="105.62637362637359" rx="0" ry="0" width="18.76923076923077" height="18.76923076923077" style="fill: rgb(217, 191, 195);"/><rect x="22.502778120755654" y="126.31083202511772" rx="0" ry="0" width="18.76923076923077" height="18.76923076923077" style="fill: rgb(230, 213, 215);"/><rect x="22.502778120755654" y="146.99529042386183" rx="0" ry="0" width="18.76923076923077" height="18.76923076923077" style="fill: rgb(217, 191, 195);"/><rect x="22.502778120755654" y="167.67974882260594" rx="0" ry="0" width="18.76923076923077" height="18.76923076923077" style="fill: rgb(230, 213, 215);"/><rect x="22.502778120755654" y="188.36420722135006" rx="0" ry="0" width="18.76923076923077" height="18.76923076923077" style="fill: rgb(217, 191, 195);"/><rect x="22.502778120755654" y="209.04866562009417" rx="0" ry="0" width="18.76923076923077" height="18.76923076923077" style="fill: rgb(242, 234, 235);"/><rect x="22.502778120755654" y="229.73312401883828" rx="0" ry="0" width="18.76923076923077" height="18.76923076923077" style="fill: rgb(255, 255, 255);"/><rect x="22.502778120755654" y="250.41758241758242" rx="0" ry="0" width="18.76923076923077" height="18.76923076923077" style="fill: rgb(255, 255, 255);"/><rect x="22.502778120755654" y="271.1020408163265" rx="0" ry="0" width="18.76923076923077" height="18.76923076923077" style="fill: rgb(255, 255, 255);"/><rect x="22.502778120755654" y="291.78649921507065" rx="0" ry="0" width="18.76923076923077" height="18.76923076923077" style="fill: rgb(255, 255, 255);"/><rect x="22.502778120755654" y="312.47095761381473" rx="0" ry="0" width="18.76923076923077" height="18.76923076923077" style="fill: rgb(255, 255, 255);"/><rect x="22.502778120755654" y="333.1554160125589" rx="0" ry="0" width="18.76923076923077" height="18.76923076923077" style="fill: rgb(242, 234, 235);"/><rect x="22.502778120755654" y="353.839874411303" rx="0" ry="0" width="18.76923076923077" height="18.76923076923077" style="fill: rgb(255, 255, 255);"/><rect x="22.502778120755654" y="374.5243328100471" rx="0" ry="0" width="18.76923076923077" height="18.76923076923077" style="fill: rgb(255, 255, 255);"/><rect x="22.502778120755654" y="395.20879120879124" rx="0" ry="0" width="18.76923076923077" height="18.76923076923077" style="fill: rgb(255, 255, 255);"/><rect x="22.502778120755654" y="415.8932496075353" rx="0" ry="0" width="18.76923076923077" height="18.76923076923077" style="fill: rgb(255, 255, 255);"/><rect x="22.502778120755654" y="436.57770800627947" rx="0" ry="0" width="18.76923076923077" height="18.76923076923077" style="fill: rgb(255, 255, 255);"/><rect x="22.502778120755654" y="457.26216640502355" rx="0" ry="0" width="18.76923076923077" height="18.76923076923077" style="fill: rgb(255, 255, 255);"/><rect x="22.502778120755654" y="477.9466248037677" rx="0" ry="0" width="18.76923076923077" height="18.76923076923077" style="fill: rgb(255, 255, 255);"/><rect x="22.502778120755654" y="498.63108320251183" rx="0" ry="0" width="18.76923076923077" height="18.76923076923077" style="fill: rgb(255, 255, 255);"/><rect x="22.502778120755654" y="519.315541601256" rx="0" ry="0" width="18.76923076923077" height="18.76923076923077" style="fill: rgb(255, 255, 255);"/><rect x="42.8386220521052" y="2.204081632653015" rx="0" ry="0" width="18.76923076923077" height="18.76923076923077" style="fill: rgb(255, 255, 255);"/><rect x="42.8386220521052" y="22.88854003139713" rx="0" ry="0" width="18.76923076923077" height="18.76923076923077" style="fill: rgb(255, 255, 255);"/><rect x="42.8386220521052" y="43.57299843014125" rx="0" ry="0" width="18.76923076923077" height="18.76923076923077" style="fill: rgb(242, 234, 235);"/><rect x="42.8386220521052" y="64.25745682888537" rx="0" ry="0" width="18.76923076923077" height="18.76923076923077" style="fill: rgb(255, 255, 255);"/><rect x="42.8386220521052" y="84.94191522762948" rx="0" ry="0" width="18.76923076923077" height="18.76923076923077" style="fill: rgb(242, 234, 235);"/><rect x="42.8386220521052" y="105.62637362637359" rx="0" ry="0" width="18.76923076923077" height="18.76923076923077" style="fill: rgb(242, 234, 235);"/><rect x="42.8386220521052" y="126.31083202511772" rx="0" ry="0" width="18.76923076923077" height="18.76923076923077" style="fill: rgb(242, 234, 235);"/><rect x="42.8386220521052" y="146.99529042386183" rx="0" ry="0" width="18.76923076923077" height="18.76923076923077" style="fill: rgb(255, 255, 255);"/><rect x="42.8386220521052" y="167.67974882260594" rx="0" ry="0" width="18.76923076923077" height="18.76923076923077" style="fill: rgb(255, 255, 255);"/><rect x="42.8386220521052" y="188.36420722135006" rx="0" ry="0" width="18.76923076923077" height="18.76923076923077" style="fill: rgb(255, 255, 255);"/><rect x="42.8386220521052" y="209.04866562009417" rx="0" ry="0" width="18.76923076923077" height="18.76923076923077" style="fill: rgb(255, 255, 255);"/><rect x="42.8386220521052" y="229.73312401883828" rx="0" ry="0" width="18.76923076923077" height="18.76923076923077" style="fill: rgb(255, 255, 255);"/><rect x="42.8386220521052" y="250.41758241758242" rx="0" ry="0" width="18.76923076923077" height="18.76923076923077" style="fill: rgb(255, 255, 255);"/><rect x="42.8386220521052" y="271.1020408163265" rx="0" ry="0" width="18.76923076923077" height="18.76923076923077" style="fill: rgb(255, 255, 255);"/><rect x="42.8386220521052" y="291.78649921507065" rx="0" ry="0" width="18.76923076923077" height="18.76923076923077" style="fill: rgb(255, 255, 255);"/><rect x="42.8386220521052" y="312.47095761381473" rx="0" ry="0" width="18.76923076923077" height="18.76923076923077" style="fill: rgb(255, 255, 255);"/><rect x="42.8386220521052" y="333.1554160125589" rx="0" ry="0" width="18.76923076923077" height="18.76923076923077" style="fill: rgb(242, 234, 235);"/><rect x="42.8386220521052" y="353.839874411303" rx="0" ry="0" width="18.76923076923077" height="18.76923076923077" style="fill: rgb(242, 234, 235);"/><rect x="42.8386220521052" y="374.5243328100471" rx="0" ry="0" width="18.76923076923077" height="18.76923076923077" style="fill: rgb(255, 255, 255);"/><rect x="42.8386220521052" y="395.20879120879124" rx="0" ry="0" width="18.76923076923077" height="18.76923076923077" style="fill: rgb(255, 255, 255);"/><rect x="42.8386220521052" y="415.8932496075353" rx="0" ry="0" width="18.76923076923077" height="18.76923076923077" style="fill: rgb(255, 255, 255);"/><rect x="42.8386220521052" y="436.57770800627947" rx="0" ry="0" width="18.76923076923077" height="18.76923076923077" style="fill: rgb(242, 234, 235);"/><rect x="42.8386220521052" y="457.26216640502355" rx="0" ry="0" width="18.76923076923077" height="18.76923076923077" style="fill: rgb(242, 234, 235);"/><rect x="42.8386220521052" y="477.9466248037677" rx="0" ry="0" width="18.76923076923077" height="18.76923076923077" style="fill: rgb(255, 255, 255);"/><rect x="42.8386220521052" y="498.63108320251183" rx="0" ry="0" width="18.76923076923077" height="18.76923076923077" style="fill: rgb(255, 255, 255);"/><rect x="42.8386220521052" y="519.315541601256" rx="0" ry="0" width="18.76923076923077" height="18.76923076923077" style="fill: rgb(255, 255, 255);"/><rect x="63.17446598345475" y="2.204081632653015" rx="0" ry="0" width="18.76923076923077" height="18.76923076923077" style="fill: rgb(242, 234, 235);"/><rect x="63.17446598345475" y="22.88854003139713" rx="0" ry="0" width="18.76923076923077" height="18.76923076923077" style="fill: rgb(255, 255, 255);"/><rect x="63.17446598345475" y="43.57299843014125" rx="0" ry="0" width="18.76923076923077" height="18.76923076923077" style="fill: rgb(255, 255, 255);"/><rect x="63.17446598345475" y="64.25745682888537" rx="0" ry="0" width="18.76923076923077" height="18.76923076923077" style="fill: rgb(230, 213, 215);"/><rect x="63.17446598345475" y="84.94191522762948" rx="0" ry="0" width="18.76923076923077" height="18.76923076923077" style="fill: rgb(242, 234, 235);"/><rect x="63.17446598345475" y="105.62637362637359" rx="0" ry="0" width="18.76923076923077" height="18.76923076923077" style="fill: rgb(255, 255, 255);"/><rect x="63.17446598345475" y="126.31083202511772" rx="0" ry="0" width="18.76923076923077" height="18.76923076923077" style="fill: rgb(255, 255, 255);"/><rect x="63.17446598345475" y="146.99529042386183" rx="0" ry="0" width="18.76923076923077" height="18.76923076923077" style="fill: rgb(255, 255, 255);"/><rect x="63.17446598345475" y="167.67974882260594" rx="0" ry="0" width="18.76923076923077" height="18.76923076923077" style="fill: rgb(255, 255, 255);"/><rect x="63.17446598345475" y="188.36420722135006" rx="0" ry="0" width="18.76923076923077" height="18.76923076923077" style="fill: rgb(255, 255, 255);"/><rect x="63.17446598345475" y="209.04866562009417" rx="0" ry="0" width="18.76923076923077" height="18.76923076923077" style="fill: rgb(255, 255, 255);"/><rect x="63.17446598345475" y="229.73312401883828" rx="0" ry="0" width="18.76923076923077" height="18.76923076923077" style="fill: rgb(255, 255, 255);"/><rect x="63.17446598345475" y="250.41758241758242" rx="0" ry="0" width="18.76923076923077" height="18.76923076923077" style="fill: rgb(255, 255, 255);"/><rect x="63.17446598345475" y="271.1020408163265" rx="0" ry="0" width="18.76923076923077" height="18.76923076923077" style="fill: rgb(255, 255, 255);"/><rect x="63.17446598345475" y="291.78649921507065" rx="0" ry="0" width="18.76923076923077" height="18.76923076923077" style="fill: rgb(255, 255, 255);"/><rect x="63.17446598345475" y="312.47095761381473" rx="0" ry="0" width="18.76923076923077" height="18.76923076923077" style="fill: rgb(255, 255, 255);"/><rect x="63.17446598345475" y="333.1554160125589" rx="0" ry="0" width="18.76923076923077" height="18.76923076923077" style="fill: rgb(255, 255, 255);"/><rect x="63.17446598345475" y="353.839874411303" rx="0" ry="0" width="18.76923076923077" height="18.76923076923077" style="fill: rgb(255, 255, 255);"/><rect x="63.17446598345475" y="374.5243328100471" rx="0" ry="0" width="18.76923076923077" height="18.76923076923077" style="fill: rgb(255, 255, 255);"/><rect x="63.17446598345475" y="395.20879120879124" rx="0" ry="0" width="18.76923076923077" height="18.76923076923077" style="fill: rgb(255, 255, 255);"/><rect x="63.17446598345475" y="415.8932496075353" rx="0" ry="0" width="18.76923076923077" height="18.76923076923077" style="fill: rgb(255, 255, 255);"/><rect x="63.17446598345475" y="436.57770800627947" rx="0" ry="0" width="18.76923076923077" height="18.76923076923077" style="fill: rgb(255, 255, 255);"/><rect x="63.17446598345475" y="457.26216640502355" rx="0" ry="0" width="18.76923076923077" height="18.76923076923077" style="fill: rgb(255, 255, 255);"/><rect x="63.17446598345475" y="477.9466248037677" rx="0" ry="0" width="18.76923076923077" height="18.76923076923077" style="fill: rgb(255, 255, 255);"/><rect x="63.17446598345475" y="498.63108320251183" rx="0" ry="0" width="18.76923076923077" height="18.76923076923077" style="fill: rgb(255, 255, 255);"/><rect x="63.17446598345475" y="519.315541601256" rx="0" ry="0" width="18.76923076923077" height="18.76923076923077" style="fill: rgb(255, 255, 255);"/><rect x="83.5103099148043" y="2.204081632653015" rx="0" ry="0" width="18.76923076923077" height="18.76923076923077" style="fill: rgb(255, 255, 255);"/><rect x="83.5103099148043" y="22.88854003139713" rx="0" ry="0" width="18.76923076923077" height="18.76923076923077" style="fill: rgb(255, 255, 255);"/><rect x="83.5103099148043" y="43.57299843014125" rx="0" ry="0" width="18.76923076923077" height="18.76923076923077" style="fill: rgb(255, 255, 255);"/><rect x="83.5103099148043" y="64.25745682888537" rx="0" ry="0" width="18.76923076923077" height="18.76923076923077" style="fill: rgb(255, 255, 255);"/><rect x="83.5103099148043" y="84.94191522762948" rx="0" ry="0" width="18.76923076923077" height="18.76923076923077" style="fill: rgb(255, 255, 255);"/><rect x="83.5103099148043" y="105.62637362637359" rx="0" ry="0" width="18.76923076923077" height="18.76923076923077" style="fill: rgb(255, 255, 255);"/><rect x="83.5103099148043" y="126.31083202511772" rx="0" ry="0" width="18.76923076923077" height="18.76923076923077" style="fill: rgb(255, 255, 255);"/><rect x="83.5103099148043" y="146.99529042386183" rx="0" ry="0" width="18.76923076923077" height="18.76923076923077" style="fill: rgb(255, 255, 255);"/><rect x="83.5103099148043" y="167.67974882260594" rx="0" ry="0" width="18.76923076923077" height="18.76923076923077" style="fill: rgb(255, 255, 255);"/><rect x="83.5103099148043" y="188.36420722135006" rx="0" ry="0" width="18.76923076923077" height="18.76923076923077" style="fill: rgb(255, 255, 255);"/><rect x="83.5103099148043" y="209.04866562009417" rx="0" ry="0" width="18.76923076923077" height="18.76923076923077" style="fill: rgb(255, 255, 255);"/><rect x="83.5103099148043" y="229.73312401883828" rx="0" ry="0" width="18.76923076923077" height="18.76923076923077" style="fill: rgb(255, 255, 255);"/><rect x="83.5103099148043" y="250.41758241758242" rx="0" ry="0" width="18.76923076923077" height="18.76923076923077" style="fill: rgb(255, 255, 255);"/><rect x="83.5103099148043" y="271.1020408163265" rx="0" ry="0" width="18.76923076923077" height="18.76923076923077" style="fill: rgb(255, 255, 255);"/><rect x="83.5103099148043" y="291.78649921507065" rx="0" ry="0" width="18.76923076923077" height="18.76923076923077" style="fill: rgb(242, 234, 235);"/><rect x="83.5103099148043" y="312.47095761381473" rx="0" ry="0" width="18.76923076923077" height="18.76923076923077" style="fill: rgb(255, 255, 255);"/><rect x="83.5103099148043" y="333.1554160125589" rx="0" ry="0" width="18.76923076923077" height="18.76923076923077" style="fill: rgb(255, 255, 255);"/><rect x="83.5103099148043" y="353.839874411303" rx="0" ry="0" width="18.76923076923077" height="18.76923076923077" style="fill: rgb(255, 255, 255);"/><rect x="83.5103099148043" y="374.5243328100471" rx="0" ry="0" width="18.76923076923077" height="18.76923076923077" style="fill: rgb(255, 255, 255);"/><rect x="83.5103099148043" y="395.20879120879124" rx="0" ry="0" width="18.76923076923077" height="18.76923076923077" style="fill: rgb(255, 255, 255);"/><rect x="83.5103099148043" y="415.8932496075353" rx="0" ry="0" width="18.76923076923077" height="18.76923076923077" style="fill: rgb(255, 255, 255);"/><rect x="83.5103099148043" y="436.57770800627947" rx="0" ry="0" width="18.76923076923077" height="18.76923076923077" style="fill: rgb(255, 255, 255);"/><rect x="83.5103099148043" y="457.26216640502355" rx="0" ry="0" width="18.76923076923077" height="18.76923076923077" style="fill: rgb(255, 255, 255);"/><rect x="83.5103099148043" y="477.9466248037677" rx="0" ry="0" width="18.76923076923077" height="18.76923076923077" style="fill: rgb(255, 255, 255);"/><rect x="83.5103099148043" y="498.63108320251183" rx="0" ry="0" width="18.76923076923077" height="18.76923076923077" style="fill: rgb(255, 255, 255);"/><rect x="83.5103099148043" y="519.315541601256" rx="0" ry="0" width="18.76923076923077" height="18.76923076923077" style="fill: rgb(255, 255, 255);"/><g id="labels"><g transform="translate(11.551549574021491,11.5886970172684)"><text x="0" y="0" text-anchor="middle" dominant-baseline="text-before-edge" transform="translate(0,0)"/></g><g transform="translate(11.551549574021491,32.273155416012514)"><text x="0" y="0" text-anchor="middle" dominant-baseline="text-before-edge" transform="translate(0,0)"/></g><g transform="translate(11.551549574021491,52.957613814756634)"><text x="0" y="0" text-anchor="middle" dominant-baseline="text-before-edge" transform="translate(0,0)"/></g><g transform="translate(11.551549574021491,73.64207221350075)"><text x="0" y="0" text-anchor="middle" dominant-baseline="text-before-edge" transform="translate(0,0)"/></g><g transform="translate(11.551549574021491,94.32653061224487)"><text x="0" y="0" text-anchor="middle" dominant-baseline="text-before-edge" transform="translate(0,0)"/></g><g transform="translate(11.551549574021491,115.01098901098898)"><text x="0" y="0" text-anchor="middle" dominant-baseline="text-before-edge" transform="translate(0,0)"/></g><g transform="translate(11.551549574021491,135.6954474097331)"><text x="0" y="0" text-anchor="middle" dominant-baseline="text-before-edge" transform="translate(0,0)"/></g><g transform="translate(11.551549574021491,156.37990580847722)"><text x="0" y="0" text-anchor="middle" dominant-baseline="text-before-edge" transform="translate(0,0)"/></g><g transform="translate(11.551549574021491,177.06436420722133)"><text x="0" y="0" text-anchor="middle" dominant-baseline="text-before-edge" transform="translate(0,0)"/></g><g transform="translate(11.551549574021491,197.74882260596544)"><text x="0" y="0" text-anchor="middle" dominant-baseline="text-before-edge" transform="translate(0,0)"/></g><g transform="translate(11.551549574021491,218.43328100470956)"><text x="0" y="0" text-anchor="middle" dominant-baseline="text-before-edge" transform="translate(0,0)"/></g><g transform="translate(11.551549574021491,239.11773940345367)"><text x="0" y="0" text-anchor="middle" dominant-baseline="text-before-edge" transform="translate(0,0)"/></g><g transform="translate(11.551549574021491,259.8021978021978)"><text x="0" y="0" text-anchor="middle" dominant-baseline="text-before-edge" transform="translate(0,0)"/></g><g transform="translate(11.551549574021491,280.48665620094187)"><text x="0" y="0" text-anchor="middle" dominant-baseline="text-before-edge" transform="translate(0,0)"/></g><g transform="translate(11.551549574021491,301.171114599686)"><text x="0" y="0" text-anchor="middle" dominant-baseline="text-before-edge" transform="translate(0,0)"/></g><g transform="translate(11.551549574021491,321.8555729984301)"><text x="0" y="0" text-anchor="middle" dominant-baseline="text-before-edge" transform="translate(0,0)"/></g><g transform="translate(11.551549574021491,342.54003139717423)"><text x="0" y="0" text-anchor="middle" dominant-baseline="text-before-edge" transform="translate(0,0)"/></g><g transform="translate(11.551549574021491,363.2244897959184)"><text x="0" y="0" text-anchor="middle" dominant-baseline="text-before-edge" transform="translate(0,0)"/></g><g transform="translate(11.551549574021491,383.90894819466246)"><text x="0" y="0" text-anchor="middle" dominant-baseline="text-before-edge" transform="translate(0,0)"/></g><g transform="translate(11.551549574021491,404.5934065934066)"><text x="0" y="0" text-anchor="middle" dominant-baseline="text-before-edge" transform="translate(0,0)"/></g><g transform="translate(11.551549574021491,425.2778649921507)"><text x="0" y="0" text-anchor="middle" dominant-baseline="text-before-edge" transform="translate(0,0)"/></g><g transform="translate(11.551549574021491,445.9623233908948)"><text x="0" y="0" text-anchor="middle" dominant-baseline="text-before-edge" transform="translate(0,0)"/></g><g transform="translate(11.551549574021491,466.6467817896389)"><text x="0" y="0" text-anchor="middle" dominant-baseline="text-before-edge" transform="translate(0,0)"/></g><g transform="translate(11.551549574021491,487.33124018838305)"><text x="0" y="0" text-anchor="middle" dominant-baseline="text-before-edge" transform="translate(0,0)"/></g><g transform="translate(11.551549574021491,508.0156985871272)"><text x="0" y="0" text-anchor="middle" dominant-baseline="text-before-edge" transform="translate(0,0)"/></g><g transform="translate(11.551549574021491,528.7001569858713)"><text x="0" y="0" text-anchor="middle" dominant-baseline="text-before-edge" transform="translate(0,0)"/></g><g transform="translate(31.887393505371037,11.5886970172684)"><text x="0" y="0" text-anchor="middle" dominant-baseline="text-before-edge" transform="translate(0,0)"/></g><g transform="translate(31.887393505371037,32.273155416012514)"><text x="0" y="0" text-anchor="middle" dominant-baseline="text-before-edge" transform="translate(0,0)"/></g><g transform="translate(31.887393505371037,52.957613814756634)"><text x="0" y="0" text-anchor="middle" dominant-baseline="text-before-edge" transform="translate(0,0)"/></g><g transform="translate(31.887393505371037,73.64207221350075)"><text x="0" y="0" text-anchor="middle" dominant-baseline="text-before-edge" transform="translate(0,0)"/></g><g transform="translate(31.887393505371037,94.32653061224487)"><text x="0" y="0" text-anchor="middle" dominant-baseline="text-before-edge" transform="translate(0,0)"/></g><g transform="translate(31.887393505371037,115.01098901098898)"><text x="0" y="0" text-anchor="middle" dominant-baseline="text-before-edge" transform="translate(0,0)"/></g><g transform="translate(31.887393505371037,135.6954474097331)"><text x="0" y="0" text-anchor="middle" dominant-baseline="text-before-edge" transform="translate(0,0)"/></g><g transform="translate(31.887393505371037,156.37990580847722)"><text x="0" y="0" text-anchor="middle" dominant-baseline="text-before-edge" transform="translate(0,0)"/></g><g transform="translate(31.887393505371037,177.06436420722133)"><text x="0" y="0" text-anchor="middle" dominant-baseline="text-before-edge" transform="translate(0,0)"/></g><g transform="translate(31.887393505371037,197.74882260596544)"><text x="0" y="0" text-anchor="middle" dominant-baseline="text-before-edge" transform="translate(0,0)"/></g><g transform="translate(31.887393505371037,218.43328100470956)"><text x="0" y="0" text-anchor="middle" dominant-baseline="text-before-edge" transform="translate(0,0)"/></g><g transform="translate(31.887393505371037,239.11773940345367)"><text x="0" y="0" text-anchor="middle" dominant-baseline="text-before-edge" transform="translate(0,0)"/></g><g transform="translate(31.887393505371037,259.8021978021978)"><text x="0" y="0" text-anchor="middle" dominant-baseline="text-before-edge" transform="translate(0,0)"/></g><g transform="translate(31.887393505371037,280.48665620094187)"><text x="0" y="0" text-anchor="middle" dominant-baseline="text-before-edge" transform="translate(0,0)"/></g><g transform="translate(31.887393505371037,301.171114599686)"><text x="0" y="0" text-anchor="middle" dominant-baseline="text-before-edge" transform="translate(0,0)"/></g><g transform="translate(31.887393505371037,321.8555729984301)"><text x="0" y="0" text-anchor="middle" dominant-baseline="text-before-edge" transform="translate(0,0)"/></g><g transform="translate(31.887393505371037,342.54003139717423)"><text x="0" y="0" text-anchor="middle" dominant-baseline="text-before-edge" transform="translate(0,0)"/></g><g transform="translate(31.887393505371037,363.2244897959184)"><text x="0" y="0" text-anchor="middle" dominant-baseline="text-before-edge" transform="translate(0,0)"/></g><g transform="translate(31.887393505371037,383.90894819466246)"><text x="0" y="0" text-anchor="middle" dominant-baseline="text-before-edge" transform="translate(0,0)"/></g><g transform="translate(31.887393505371037,404.5934065934066)"><text x="0" y="0" text-anchor="middle" dominant-baseline="text-before-edge" transform="translate(0,0)"/></g><g transform="translate(31.887393505371037,425.2778649921507)"><text x="0" y="0" text-anchor="middle" dominant-baseline="text-before-edge" transform="translate(0,0)"/></g><g transform="translate(31.887393505371037,445.9623233908948)"><text x="0" y="0" text-anchor="middle" dominant-baseline="text-before-edge" transform="translate(0,0)"/></g><g transform="translate(31.887393505371037,466.6467817896389)"><text x="0" y="0" text-anchor="middle" dominant-baseline="text-before-edge" transform="translate(0,0)"/></g><g transform="translate(31.887393505371037,487.33124018838305)"><text x="0" y="0" text-anchor="middle" dominant-baseline="text-before-edge" transform="translate(0,0)"/></g><g transform="translate(31.887393505371037,508.0156985871272)"><text x="0" y="0" text-anchor="middle" dominant-baseline="text-before-edge" transform="translate(0,0)"/></g><g transform="translate(31.887393505371037,528.7001569858713)"><text x="0" y="0" text-anchor="middle" dominant-baseline="text-before-edge" transform="translate(0,0)"/></g><g transform="translate(52.22323743672059,11.5886970172684)"><text x="0" y="0" text-anchor="middle" dominant-baseline="text-before-edge" transform="translate(0,0)"/></g><g transform="translate(52.22323743672059,32.273155416012514)"><text x="0" y="0" text-anchor="middle" dominant-baseline="text-before-edge" transform="translate(0,0)"/></g><g transform="translate(52.22323743672059,52.957613814756634)"><text x="0" y="0" text-anchor="middle" dominant-baseline="text-before-edge" transform="translate(0,0)"/></g><g transform="translate(52.22323743672059,73.64207221350075)"><text x="0" y="0" text-anchor="middle" dominant-baseline="text-before-edge" transform="translate(0,0)"/></g><g transform="translate(52.22323743672059,94.32653061224487)"><text x="0" y="0" text-anchor="middle" dominant-baseline="text-before-edge" transform="translate(0,0)"/></g><g transform="translate(52.22323743672059,115.01098901098898)"><text x="0" y="0" text-anchor="middle" dominant-baseline="text-before-edge" transform="translate(0,0)"/></g><g transform="translate(52.22323743672059,135.6954474097331)"><text x="0" y="0" text-anchor="middle" dominant-baseline="text-before-edge" transform="translate(0,0)"/></g><g transform="translate(52.22323743672059,156.37990580847722)"><text x="0" y="0" text-anchor="middle" dominant-baseline="text-before-edge" transform="translate(0,0)"/></g><g transform="translate(52.22323743672059,177.06436420722133)"><text x="0" y="0" text-anchor="middle" dominant-baseline="text-before-edge" transform="translate(0,0)"/></g><g transform="translate(52.22323743672059,197.74882260596544)"><text x="0" y="0" text-anchor="middle" dominant-baseline="text-before-edge" transform="translate(0,0)"/></g><g transform="translate(52.22323743672059,218.43328100470956)"><text x="0" y="0" text-anchor="middle" dominant-baseline="text-before-edge" transform="translate(0,0)"/></g><g transform="translate(52.22323743672059,239.11773940345367)"><text x="0" y="0" text-anchor="middle" dominant-baseline="text-before-edge" transform="translate(0,0)"/></g><g transform="translate(52.22323743672059,259.8021978021978)"><text x="0" y="0" text-anchor="middle" dominant-baseline="text-before-edge" transform="translate(0,0)"/></g><g transform="translate(52.22323743672059,280.48665620094187)"><text x="0" y="0" text-anchor="middle" dominant-baseline="text-before-edge" transform="translate(0,0)"/></g><g transform="translate(52.22323743672059,301.171114599686)"><text x="0" y="0" text-anchor="middle" dominant-baseline="text-before-edge" transform="translate(0,0)"/></g><g transform="translate(52.22323743672059,321.8555729984301)"><text x="0" y="0" text-anchor="middle" dominant-baseline="text-before-edge" transform="translate(0,0)"/></g><g transform="translate(52.22323743672059,342.54003139717423)"><text x="0" y="0" text-anchor="middle" dominant-baseline="text-before-edge" transform="translate(0,0)"/></g><g transform="translate(52.22323743672059,363.2244897959184)"><text x="0" y="0" text-anchor="middle" dominant-baseline="text-before-edge" transform="translate(0,0)"/></g><g transform="translate(52.22323743672059,383.90894819466246)"><text x="0" y="0" text-anchor="middle" dominant-baseline="text-before-edge" transform="translate(0,0)"/></g><g transform="translate(52.22323743672059,404.5934065934066)"><text x="0" y="0" text-anchor="middle" dominant-baseline="text-before-edge" transform="translate(0,0)"/></g><g transform="translate(52.22323743672059,425.2778649921507)"><text x="0" y="0" text-anchor="middle" dominant-baseline="text-before-edge" transform="translate(0,0)"/></g><g transform="translate(52.22323743672059,445.9623233908948)"><text x="0" y="0" text-anchor="middle" dominant-baseline="text-before-edge" transform="translate(0,0)"/></g><g transform="translate(52.22323743672059,466.6467817896389)"><text x="0" y="0" text-anchor="middle" dominant-baseline="text-before-edge" transform="translate(0,0)"/></g><g transform="translate(52.22323743672059,487.33124018838305)"><text x="0" y="0" text-anchor="middle" dominant-baseline="text-before-edge" transform="translate(0,0)"/></g><g transform="translate(52.22323743672059,508.0156985871272)"><text x="0" y="0" text-anchor="middle" dominant-baseline="text-before-edge" transform="translate(0,0)"/></g><g transform="translate(52.22323743672059,528.7001569858713)"><text x="0" y="0" text-anchor="middle" dominant-baseline="text-before-edge" transform="translate(0,0)"/></g><g transform="translate(72.55908136807014,11.5886970172684)"><text x="0" y="0" text-anchor="middle" dominant-baseline="text-before-edge" transform="translate(0,0)"/></g><g transform="translate(72.55908136807014,32.273155416012514)"><text x="0" y="0" text-anchor="middle" dominant-baseline="text-before-edge" transform="translate(0,0)"/></g><g transform="translate(72.55908136807014,52.957613814756634)"><text x="0" y="0" text-anchor="middle" dominant-baseline="text-before-edge" transform="translate(0,0)"/></g><g transform="translate(72.55908136807014,73.64207221350075)"><text x="0" y="0" text-anchor="middle" dominant-baseline="text-before-edge" transform="translate(0,0)"/></g><g transform="translate(72.55908136807014,94.32653061224487)"><text x="0" y="0" text-anchor="middle" dominant-baseline="text-before-edge" transform="translate(0,0)"/></g><g transform="translate(72.55908136807014,115.01098901098898)"><text x="0" y="0" text-anchor="middle" dominant-baseline="text-before-edge" transform="translate(0,0)"/></g><g transform="translate(72.55908136807014,135.6954474097331)"><text x="0" y="0" text-anchor="middle" dominant-baseline="text-before-edge" transform="translate(0,0)"/></g><g transform="translate(72.55908136807014,156.37990580847722)"><text x="0" y="0" text-anchor="middle" dominant-baseline="text-before-edge" transform="translate(0,0)"/></g><g transform="translate(72.55908136807014,177.06436420722133)"><text x="0" y="0" text-anchor="middle" dominant-baseline="text-before-edge" transform="translate(0,0)"/></g><g transform="translate(72.55908136807014,197.74882260596544)"><text x="0" y="0" text-anchor="middle" dominant-baseline="text-before-edge" transform="translate(0,0)"/></g><g transform="translate(72.55908136807014,218.43328100470956)"><text x="0" y="0" text-anchor="middle" dominant-baseline="text-before-edge" transform="translate(0,0)"/></g><g transform="translate(72.55908136807014,239.11773940345367)"><text x="0" y="0" text-anchor="middle" dominant-baseline="text-before-edge" transform="translate(0,0)"/></g><g transform="translate(72.55908136807014,259.8021978021978)"><text x="0" y="0" text-anchor="middle" dominant-baseline="text-before-edge" transform="translate(0,0)"/></g><g transform="translate(72.55908136807014,280.48665620094187)"><text x="0" y="0" text-anchor="middle" dominant-baseline="text-before-edge" transform="translate(0,0)"/></g><g transform="translate(72.55908136807014,301.171114599686)"><text x="0" y="0" text-anchor="middle" dominant-baseline="text-before-edge" transform="translate(0,0)"/></g><g transform="translate(72.55908136807014,321.8555729984301)"><text x="0" y="0" text-anchor="middle" dominant-baseline="text-before-edge" transform="translate(0,0)"/></g><g transform="translate(72.55908136807014,342.54003139717423)"><text x="0" y="0" text-anchor="middle" dominant-baseline="text-before-edge" transform="translate(0,0)"/></g><g transform="translate(72.55908136807014,363.2244897959184)"><text x="0" y="0" text-anchor="middle" dominant-baseline="text-before-edge" transform="translate(0,0)"/></g><g transform="translate(72.55908136807014,383.90894819466246)"><text x="0" y="0" text-anchor="middle" dominant-baseline="text-before-edge" transform="translate(0,0)"/></g><g transform="translate(72.55908136807014,404.5934065934066)"><text x="0" y="0" text-anchor="middle" dominant-baseline="text-before-edge" transform="translate(0,0)"/></g><g transform="translate(72.55908136807014,425.2778649921507)"><text x="0" y="0" text-anchor="middle" dominant-baseline="text-before-edge" transform="translate(0,0)"/></g><g transform="translate(72.55908136807014,445.9623233908948)"><text x="0" y="0" text-anchor="middle" dominant-baseline="text-before-edge" transform="translate(0,0)"/></g><g transform="translate(72.55908136807014,466.6467817896389)"><text x="0" y="0" text-anchor="middle" dominant-baseline="text-before-edge" transform="translate(0,0)"/></g><g transform="translate(72.55908136807014,487.33124018838305)"><text x="0" y="0" text-anchor="middle" dominant-baseline="text-before-edge" transform="translate(0,0)"/></g><g transform="translate(72.55908136807014,508.0156985871272)"><text x="0" y="0" text-anchor="middle" dominant-baseline="text-before-edge" transform="translate(0,0)"/></g><g transform="translate(72.55908136807014,528.7001569858713)"><text x="0" y="0" text-anchor="middle" dominant-baseline="text-before-edge" transform="translate(0,0)"/></g><g transform="translate(92.89492529941968,11.5886970172684)"><text x="0" y="0" text-anchor="middle" dominant-baseline="text-before-edge" transform="translate(0,0)"/></g><g transform="translate(92.89492529941968,32.273155416012514)"><text x="0" y="0" text-anchor="middle" dominant-baseline="text-before-edge" transform="translate(0,0)"/></g><g transform="translate(92.89492529941968,52.957613814756634)"><text x="0" y="0" text-anchor="middle" dominant-baseline="text-before-edge" transform="translate(0,0)"/></g><g transform="translate(92.89492529941968,73.64207221350075)"><text x="0" y="0" text-anchor="middle" dominant-baseline="text-before-edge" transform="translate(0,0)"/></g><g transform="translate(92.89492529941968,94.32653061224487)"><text x="0" y="0" text-anchor="middle" dominant-baseline="text-before-edge" transform="translate(0,0)"/></g><g transform="translate(92.89492529941968,115.01098901098898)"><text x="0" y="0" text-anchor="middle" dominant-baseline="text-before-edge" transform="translate(0,0)"/></g><g transform="translate(92.89492529941968,135.6954474097331)"><text x="0" y="0" text-anchor="middle" dominant-baseline="text-before-edge" transform="translate(0,0)"/></g><g transform="translate(92.89492529941968,156.37990580847722)"><text x="0" y="0" text-anchor="middle" dominant-baseline="text-before-edge" transform="translate(0,0)"/></g><g transform="translate(92.89492529941968,177.06436420722133)"><text x="0" y="0" text-anchor="middle" dominant-baseline="text-before-edge" transform="translate(0,0)"/></g><g transform="translate(92.89492529941968,197.74882260596544)"><text x="0" y="0" text-anchor="middle" dominant-baseline="text-before-edge" transform="translate(0,0)"/></g><g transform="translate(92.89492529941968,218.43328100470956)"><text x="0" y="0" text-anchor="middle" dominant-baseline="text-before-edge" transform="translate(0,0)"/></g><g transform="translate(92.89492529941968,239.11773940345367)"><text x="0" y="0" text-anchor="middle" dominant-baseline="text-before-edge" transform="translate(0,0)"/></g><g transform="translate(92.89492529941968,259.8021978021978)"><text x="0" y="0" text-anchor="middle" dominant-baseline="text-before-edge" transform="translate(0,0)"/></g><g transform="translate(92.89492529941968,280.48665620094187)"><text x="0" y="0" text-anchor="middle" dominant-baseline="text-before-edge" transform="translate(0,0)"/></g><g transform="translate(92.89492529941968,301.171114599686)"><text x="0" y="0" text-anchor="middle" dominant-baseline="text-before-edge" transform="translate(0,0)"/></g><g transform="translate(92.89492529941968,321.8555729984301)"><text x="0" y="0" text-anchor="middle" dominant-baseline="text-before-edge" transform="translate(0,0)"/></g><g transform="translate(92.89492529941968,342.54003139717423)"><text x="0" y="0" text-anchor="middle" dominant-baseline="text-before-edge" transform="translate(0,0)"/></g><g transform="translate(92.89492529941968,363.2244897959184)"><text x="0" y="0" text-anchor="middle" dominant-baseline="text-before-edge" transform="translate(0,0)"/></g><g transform="translate(92.89492529941968,383.90894819466246)"><text x="0" y="0" text-anchor="middle" dominant-baseline="text-before-edge" transform="translate(0,0)"/></g><g transform="translate(92.89492529941968,404.5934065934066)"><text x="0" y="0" text-anchor="middle" dominant-baseline="text-before-edge" transform="translate(0,0)"/></g><g transform="translate(92.89492529941968,425.2778649921507)"><text x="0" y="0" text-anchor="middle" dominant-baseline="text-before-edge" transform="translate(0,0)"/></g><g transform="translate(92.89492529941968,445.9623233908948)"><text x="0" y="0" text-anchor="middle" dominant-baseline="text-before-edge" transform="translate(0,0)"/></g><g transform="translate(92.89492529941968,466.6467817896389)"><text x="0" y="0" text-anchor="middle" dominant-baseline="text-before-edge" transform="translate(0,0)"/></g><g transform="translate(92.89492529941968,487.33124018838305)"><text x="0" y="0" text-anchor="middle" dominant-baseline="text-before-edge" transform="translate(0,0)"/></g><g transform="translate(92.89492529941968,508.0156985871272)"><text x="0" y="0" text-anchor="middle" dominant-baseline="text-before-edge" transform="translate(0,0)"/></g><g transform="translate(92.89492529941968,528.7001569858713)"><text x="0" y="0" text-anchor="middle" dominant-baseline="text-before-edge" transform="translate(0,0)"/></g></g></g></svg>